<svg id="Grupo_1104088" data-name="Grupo 1104088" xmlns="http://www.w3.org/2000/svg" width="94.154" height="96.232" viewBox="0 0 94.154 96.232">
  <path id="Trazado_874368" data-name="Trazado 874368" d="M263.919,20.307a1.437,1.437,0,0,1-1.438-1.438V11.5a8.624,8.624,0,0,0-17.248,0V18.87a1.437,1.437,0,1,1-2.874,0V11.5a11.5,11.5,0,1,1,23,0V18.87a1.437,1.437,0,0,1-1.437,1.438Zm0,0" transform="translate(-196.806)" fill="#d2d2d7"/>
  <path id="Trazado_874369" data-name="Trazado 874369" d="M192.88,81.664v63.679a1.989,1.989,0,0,1-1.989,1.99H137.71a1.989,1.989,0,0,1-1.991-1.99V81.664a1.991,1.991,0,0,1,1.991-1.992h53.181A1.99,1.99,0,0,1,192.88,81.664Zm0,0" transform="translate(-110.21 -64.697)" fill="#f44545"/>
  <path id="Trazado_874370" data-name="Trazado 874370" d="M372.9,81.664v63.679a1.989,1.989,0,0,1-1.989,1.99h-13.5V79.672h13.5a1.99,1.99,0,0,1,1.989,1.992Zm0,0" transform="translate(-290.233 -64.698)" fill="#c42d2d"/>
  <path id="Trazado_874371" data-name="Trazado 874371" d="M392.875,97.1a1.438,1.438,0,0,0-1.438,1.437v48.8h2.875v-48.8A1.438,1.438,0,0,0,392.875,97.1Zm-1.438-17.426V92.785a1.438,1.438,0,1,0,2.875,0V79.672Zm0,0" transform="translate(-317.865 -64.697)" fill="#f44545"/>
  <path id="Trazado_874372" data-name="Trazado 874372" d="M210.388,23.175a1.437,1.437,0,0,1-1.437-1.438V11.5a8.624,8.624,0,0,0-17.248,0V21.738a1.438,1.438,0,0,1-2.875,0V11.5a11.5,11.5,0,0,1,23,0V21.738a1.438,1.438,0,0,1-1.438,1.438Zm0,0" transform="translate(-153.337 0)" fill="#ebebf0"/>
  <path id="Trazado_874373" data-name="Trazado 874373" d="M220.069,335.109a4.237,4.237,0,0,0-1.855,5.7l1.3,2.565a1.245,1.245,0,0,1-1.109,1.809h-5.035l-11.907,0a2.821,2.821,0,1,0-.077,5.64c-5.564,0-5.247,0-5.271,0a2.951,2.951,0,0,0-1.987.891,2.866,2.866,0,0,0-.766,2.772,2.658,2.658,0,0,0,2.695,1.972h2.506c-.02,0-.04,0-.058,0a2.819,2.819,0,0,0,.057,5.637l8.789.006a2.814,2.814,0,0,0-2.821,2.818,2.82,2.82,0,0,0,2.819,2.819l19.716.007h.051a6.655,6.655,0,0,0,6.657-6.632l-.026-14.9a6.741,6.741,0,0,0-.077-1.025h-3.761a4.5,4.5,0,0,1-4.016-2.463l-3.488-6.85a1.74,1.74,0,0,0-2.341-.761Zm0,0" transform="translate(-156.949 -271.969)" fill="#f2bb88"/>
  <g id="Grupo_1104082" data-name="Grupo 1104082" transform="translate(36.419 76.876)">
    <path id="Trazado_874374" data-name="Trazado 874374" d="M223.569,469.02H207.133a2.817,2.817,0,0,0,2.687,1.968l8.789.006h4.96a.987.987,0,1,0,0-1.974Zm0,0" transform="translate(-204.62 -457.741)" fill="#e3a76f"/>
    <path id="Trazado_874375" data-name="Trazado 874375" d="M212.715,439H193.766a2.658,2.658,0,0,0,2.694,1.972h2.506c-.02,0-.04,0-.058,0h13.807a.987.987,0,0,0,0-1.974Zm0,0" transform="translate(-193.766 -433.36)" fill="#e3a76f"/>
    <path id="Trazado_874376" data-name="Trazado 874376" d="M208.414,419.5h5.271C208.121,419.5,208.438,419.5,208.414,419.5Zm0,0" transform="translate(-205.661 -417.531)" fill="#e3a76f"/>
    <path id="Trazado_874377" data-name="Trazado 874377" d="M235.661,409.012H222.148a2.833,2.833,0,0,0,2.689,1.974h10.824a.987.987,0,0,0,0-1.974Zm0,0" transform="translate(-216.814 -409.012)" fill="#e3a76f"/>
    <path id="Trazado_874378" data-name="Trazado 874378" d="M282.428,460.691a6.653,6.653,0,0,1-6.653,6.42h-.051l-22.533,0a2.817,2.817,0,0,0,2.816,2.76l19.716.007h.051a6.653,6.653,0,0,0,6.657-6.632Zm0,0" transform="translate(-242.022 -450.978)" fill="#e3a76f"/>
  </g>
  <path id="Trazado_874379" data-name="Trazado 874379" d="M410.6,396.3h10.114c2.082,0,3.8-1.283,3.8-2.855v-21.06c0-1.571-1.7-2.865-3.783-2.866H410.611c-2.081,0-3.786,1.285-3.787,2.855l-.007,21.061c0,1.57,1.7,2.865,3.782,2.865Zm0,0" transform="translate(-330.354 -300.063)" fill="#d2d2d7"/>
  <path id="Trazado_874380" data-name="Trazado 874380" d="M443.621,396.3H450.6c2.082,0,3.8-1.283,3.8-2.855v-21.06c0-1.571-1.7-2.865-3.783-2.866h-6.99Zm0,0" transform="translate(-360.24 -300.063)" fill="#5596fb"/>
  <path id="Trazado_874381" data-name="Trazado 874381" d="M462.706,476.5a1.963,1.963,0,1,1-1.963,1.963A1.969,1.969,0,0,1,462.706,476.5Zm0,0" transform="translate(-374.144 -386.939)" fill="#0956c6"/>
  <path id="Trazado_874382" data-name="Trazado 874382" d="M105.885,127.714a4.238,4.238,0,0,1,1.855,5.7l-1.305,2.565a1.245,1.245,0,0,0,1.109,1.809h5.034l11.907,0a2.821,2.821,0,1,1,.078,5.64c4.451,0,5.241,0,5.27,0a2.948,2.948,0,0,1,1.987.891,2.879,2.879,0,0,1,.767,2.772,2.658,2.658,0,0,1-2.695,1.972h-2.507c.02,0,.04,0,.058,0a2.819,2.819,0,0,1-.057,5.637l-8.79.005a2.812,2.812,0,0,1,2.821,2.819,2.819,2.819,0,0,1-2.818,2.819l-19.716.007h-.051a6.655,6.655,0,0,1-6.657-6.633l.026-14.9a6.751,6.751,0,0,1,.078-1.025h3.76a4.5,4.5,0,0,0,4.017-2.462l3.487-6.851a1.74,1.74,0,0,1,2.341-.761Zm0,0" transform="translate(-74.851 -103.555)" fill="#f2bb88"/>
  <path id="Trazado_874383" data-name="Trazado 874383" d="M202.1,261.625h16.436a2.816,2.816,0,0,1-2.686,1.968l-8.79.005H202.1a.987.987,0,0,1,0-1.974Zm0,0" transform="translate(-163.313 -212.451)" fill="#e3a76f"/>
  <path id="Trazado_874384" data-name="Trazado 874384" d="M202.1,231.6h18.949a2.659,2.659,0,0,1-2.695,1.972h-2.507c.02,0,.04,0,.058,0H202.1a.987.987,0,1,1,0-1.974Zm0,0" transform="translate(-163.312 -188.074)" fill="#e3a76f"/>
  <path id="Trazado_874385" data-name="Trazado 874385" d="M269.758,212.111h-5.27C268.939,212.11,269.729,212.109,269.758,212.111Zm0,0" transform="translate(-214.776 -172.242)" fill="#e3a76f"/>
  <path id="Trazado_874386" data-name="Trazado 874386" d="M202.639,201.617h13.513a2.833,2.833,0,0,1-2.689,1.974H202.639a.987.987,0,0,1,0-1.974Zm0,0" transform="translate(-163.75 -163.722)" fill="#e3a76f"/>
  <path id="Trazado_874387" data-name="Trazado 874387" d="M92.181,253.3a6.653,6.653,0,0,0,6.653,6.42h.051l22.533,0a2.817,2.817,0,0,1-2.816,2.76l-19.716.007h-.051a6.654,6.654,0,0,1-6.657-6.632Zm0,0" transform="translate(-74.851 -205.689)" fill="#e3a76f"/>
  <path id="Trazado_874388" data-name="Trazado 874388" d="M17.691,182.92c0,1.57-1.7,2.866-3.781,2.866H3.8c-2.083,0-3.8-1.284-3.8-2.856V161.871C0,160.3,1.7,159.005,3.783,159H13.9c2.081,0,3.786,1.284,3.787,2.855Zm0,0" transform="translate(0 -129.118)" fill="#ebebf0"/>
  <path id="Trazado_874389" data-name="Trazado 874389" d="M9.819,183.13l2.275,2.655H3.8c-2.083,0-3.8-1.284-3.8-2.856V161.871C0,160.3,1.7,159.005,3.783,159h8.31l-2.275,2.652a2.766,2.766,0,0,0,0,3.6l.747.87a2.767,2.767,0,0,1,0,3.6l-.747.87a2.763,2.763,0,0,0,0,3.6l.747.87a2.767,2.767,0,0,1,0,3.6l-.747.872a2.762,2.762,0,0,0,0,3.6Zm0,0" transform="translate(0 -129.118)" fill="#ffa90b"/>
</svg>
