<svg xmlns="http://www.w3.org/2000/svg" width="66.499" height="113.254" viewBox="0 0 66.499 113.254">
  <g id="Grupo_1104092" data-name="Grupo 1104092" transform="translate(-0.238)">
    <path id="Trazado_874390" data-name="Trazado 874390" d="M.238,57.4H57.19v91.539H.238Zm0,0" transform="translate(0 -43.281)" fill="#4e7693"/>
    <g id="Grupo_1104084" data-name="Grupo 1104084" transform="translate(7.888 14.117)">
      <path id="Trazado_874391" data-name="Trazado 874391" d="M31.34,248.809H43.067v5.935H31.34Zm0,0" transform="translate(-31.34 -201.732)" fill="#2c5168"/>
      <path id="Trazado_874392" data-name="Trazado 874392" d="M97.055,248.809h11.727v5.935H97.055Zm0,0" transform="translate(-80.892 -201.732)" fill="#2c5168"/>
      <path id="Trazado_874393" data-name="Trazado 874393" d="M162.773,248.809H174.5v5.935H162.773Zm0,0" transform="translate(-130.447 -201.732)" fill="#2c5168"/>
      <path id="Trazado_874394" data-name="Trazado 874394" d="M31.34,292.246H43.067v5.935H31.34Zm0,0" transform="translate(-31.34 -234.486)" fill="#2c5168"/>
      <path id="Trazado_874395" data-name="Trazado 874395" d="M97.055,292.246h11.727v5.935H97.055Zm0,0" transform="translate(-80.892 -234.486)" fill="#2c5168"/>
      <path id="Trazado_874396" data-name="Trazado 874396" d="M162.773,292.246H174.5v5.935H162.773Zm0,0" transform="translate(-130.447 -234.486)" fill="#2c5168"/>
      <path id="Trazado_874397" data-name="Trazado 874397" d="M31.34,335.688H43.067v5.935H31.34Zm0,0" transform="translate(-31.34 -267.243)" fill="#2c5168"/>
      <path id="Trazado_874398" data-name="Trazado 874398" d="M97.055,335.688h11.727v5.935H97.055Zm0,0" transform="translate(-80.892 -267.243)" fill="#2c5168"/>
      <path id="Trazado_874399" data-name="Trazado 874399" d="M162.773,335.688H174.5v5.935H162.773Zm0,0" transform="translate(-130.447 -267.243)" fill="#2c5168"/>
      <path id="Trazado_874400" data-name="Trazado 874400" d="M31.34,379.133H43.067v5.935H31.34Zm0,0" transform="translate(-31.34 -300.003)" fill="#2c5168"/>
      <path id="Trazado_874401" data-name="Trazado 874401" d="M97.055,379.133h11.727v5.935H97.055Zm0,0" transform="translate(-80.892 -300.003)" fill="#2c5168"/>
      <path id="Trazado_874402" data-name="Trazado 874402" d="M162.773,379.133H174.5v5.935H162.773Zm0,0" transform="translate(-130.447 -300.003)" fill="#2c5168"/>
      <path id="Trazado_874403" data-name="Trazado 874403" d="M50.809,57.4H86.167v6.981H50.809Zm0,0" transform="translate(-46.02 -57.398)" fill="#2c5168"/>
      <path id="Trazado_874404" data-name="Trazado 874404" d="M222.863,57.4h2.2v91.539h-2.2Zm0,0" transform="translate(-175.758 -57.398)" fill="#2c5168"/>
    </g>
    <path id="Trazado_874405" data-name="Trazado 874405" d="M9.168,429.594H61.726v7.6H9.168Zm0,0" transform="translate(-6.733 -323.936)" fill="#43a3f9"/>
    <path id="Trazado_874406" data-name="Trazado 874406" d="M59.194,429.594H9.168v2.162H59.194v5.435h2.532v-7.6Zm0,0" transform="translate(-6.733 -323.936)" fill="#288aea"/>
    <path id="Trazado_874407" data-name="Trazado 874407" d="M26.461,110.68H70.512v27.255H26.461Zm0,0" transform="translate(-19.773 -83.459)" fill="#2c5168"/>
    <path id="Trazado_874408" data-name="Trazado 874408" d="M50.3,130.6H82.626v17.457H50.3Zm0,0" transform="translate(-37.75 -98.478)" fill="#43a3f9"/>
    <path id="Trazado_874409" data-name="Trazado 874409" d="M44.133,0H79.492V21.1H44.133Zm0,0" transform="translate(-33.099)" fill="#e3f4ff"/>
    <path id="Trazado_874410" data-name="Trazado 874410" d="M173.758,0h3.478V21.1h-3.478Zm0,0" transform="translate(-130.843)" fill="#bbd8ef"/>
    <path id="Trazado_874411" data-name="Trazado 874411" d="M65.234,82.225H21.183a1.722,1.722,0,1,1,0-3.443H65.234a1.722,1.722,0,1,1,0,3.443Zm0,0" transform="translate(-14.495 -59.405)" fill="#2c5168"/>
    <path id="Trazado_874412" data-name="Trazado 874412" d="M26.461,248.809H38.188v5.935H26.461Zm0,0" transform="translate(-19.773 -187.615)" fill="#ffdf46"/>
    <path id="Trazado_874413" data-name="Trazado 874413" d="M92.176,248.809H103.9v5.935H92.176Zm0,0" transform="translate(-69.326 -187.615)" fill="#9be058"/>
    <path id="Trazado_874414" data-name="Trazado 874414" d="M157.891,248.809h11.727v5.935H157.891Zm0,0" transform="translate(-118.878 -187.615)" fill="#fc3e81"/>
    <path id="Trazado_874415" data-name="Trazado 874415" d="M26.461,292.246H38.188v5.935H26.461Zm0,0" transform="translate(-19.773 -220.369)" fill="#ffdf46"/>
    <path id="Trazado_874416" data-name="Trazado 874416" d="M92.176,292.246H103.9v5.935H92.176Zm0,0" transform="translate(-69.326 -220.369)" fill="#ffdf46"/>
    <path id="Trazado_874417" data-name="Trazado 874417" d="M157.891,292.246h11.727v5.935H157.891Zm0,0" transform="translate(-118.878 -220.369)" fill="#ffdf46"/>
    <path id="Trazado_874418" data-name="Trazado 874418" d="M26.461,335.688H38.188v5.935H26.461Zm0,0" transform="translate(-19.773 -253.126)" fill="#ffdf46"/>
    <path id="Trazado_874419" data-name="Trazado 874419" d="M92.176,335.688H103.9v5.935H92.176Zm0,0" transform="translate(-69.326 -253.126)" fill="#ffdf46"/>
    <path id="Trazado_874420" data-name="Trazado 874420" d="M157.891,335.688h11.727v5.935H157.891Zm0,0" transform="translate(-118.878 -253.126)" fill="#ffdf46"/>
    <path id="Trazado_874421" data-name="Trazado 874421" d="M26.461,379.133H38.188v5.935H26.461Zm0,0" transform="translate(-19.773 -285.886)" fill="#ffdf46"/>
    <path id="Trazado_874422" data-name="Trazado 874422" d="M92.176,379.133H103.9v5.935H92.176Zm0,0" transform="translate(-69.326 -285.886)" fill="#ffdf46"/>
    <path id="Trazado_874423" data-name="Trazado 874423" d="M157.891,379.133h11.727v5.935H157.891Zm0,0" transform="translate(-118.878 -285.886)" fill="#ffdf46"/>
    <path id="Trazado_874424" data-name="Trazado 874424" d="M198.152,379.133h1.824v5.935h-1.824Zm0,0" transform="translate(-149.237 -285.886)" fill="#ffc32c"/>
    <path id="Trazado_874425" data-name="Trazado 874425" d="M198.152,335.688h1.824v5.935h-1.824Zm0,0" transform="translate(-149.237 -253.126)" fill="#ffc32c"/>
    <path id="Trazado_874426" data-name="Trazado 874426" d="M198.152,292.246h1.824v5.935h-1.824Zm0,0" transform="translate(-149.237 -220.369)" fill="#ffc32c"/>
    <path id="Trazado_874427" data-name="Trazado 874427" d="M198.152,248.809h1.824v5.935h-1.824Zm0,0" transform="translate(-149.237 -187.615)" fill="#e02057"/>
    <path id="Trazado_874428" data-name="Trazado 874428" d="M132.438,379.133h1.824v5.935h-1.824Zm0,0" transform="translate(-99.686 -285.886)" fill="#ffc32c"/>
    <path id="Trazado_874429" data-name="Trazado 874429" d="M132.438,335.688h1.824v5.935h-1.824Zm0,0" transform="translate(-99.686 -253.126)" fill="#ffc32c"/>
    <path id="Trazado_874430" data-name="Trazado 874430" d="M132.438,292.246h1.824v5.935h-1.824Zm0,0" transform="translate(-99.686 -220.369)" fill="#ffc32c"/>
    <path id="Trazado_874431" data-name="Trazado 874431" d="M132.438,248.809h1.824v5.935h-1.824Zm0,0" transform="translate(-99.686 -187.615)" fill="#77b734"/>
    <path id="Trazado_874432" data-name="Trazado 874432" d="M66.719,379.133h1.825v5.935H66.719Zm0,0" transform="translate(-50.13 -285.886)" fill="#ffc32c"/>
    <path id="Trazado_874433" data-name="Trazado 874433" d="M66.719,335.688h1.825v5.935H66.719Zm0,0" transform="translate(-50.13 -253.126)" fill="#ffc32c"/>
    <path id="Trazado_874434" data-name="Trazado 874434" d="M66.719,292.246h1.825v5.935H66.719Zm0,0" transform="translate(-50.13 -220.369)" fill="#ffc32c"/>
    <path id="Trazado_874435" data-name="Trazado 874435" d="M66.719,248.809h1.825v5.935H66.719Zm0,0" transform="translate(-50.13 -187.615)" fill="#ffc32c"/>
    <path id="Trazado_874436" data-name="Trazado 874436" d="M231.793,91.066h9.549v69.5h-9.549Zm0,0" transform="translate(-174.604 -68.669)" fill="#43a3f9"/>
    <path id="Trazado_874437" data-name="Trazado 874437" d="M262.281,91.066h2.05v69.5h-2.05Zm0,0" transform="translate(-197.594 -68.669)" fill="#288aea"/>
    <path id="Trazado_874438" data-name="Trazado 874438" d="M245.925,117.18A1.722,1.722,0,0,0,244.2,118.9v61.359h3.443V118.9a1.721,1.721,0,0,0-1.722-1.722Zm0,0" transform="translate(-183.962 -88.36)" fill="#2c5168"/>
    <path id="Trazado_874439" data-name="Trazado 874439" d="M82.625,147v-3.824L56.718,130.6H50.3v.706Zm0,0" transform="translate(-37.749 -98.477)" fill="#e3f4ff"/>
    <path id="Trazado_874440" data-name="Trazado 874440" d="M68.1,175.094l-17.8-8.637v2.533l12.584,6.1Zm0,0" transform="translate(-37.749 -125.517)" fill="#e3f4ff"/>
    <path id="Trazado_874441" data-name="Trazado 874441" d="M105.127,130.6H99.906l20.124,9.766V137.83Zm0,0" transform="translate(-75.155 -98.478)" fill="#e3f4ff"/>
  </g>
</svg>
